<svg width="36" height="36" viewBox="0 0 36 36" fill="none" xmlns="http://www.w3.org/2000/svg">
<path d="M16 4V2L14 2V4H16Z" fill="#00A2FF"/>
<path d="M18 4V2H16V4H18Z" fill="#00A2FF"/>
<path d="M20 4V2H18V4H20Z" fill="#00A2FF"/>
<path d="M22 4V2H20V4H22Z" fill="#00A1FF"/>
<path d="M10 6V4H8V6H10Z" fill="#00A2FF"/>
<path d="M12 6V4H10V6H12Z" fill="#00A2FF"/>
<path d="M14 6V4H12V6H14Z" fill="#00A2FF"/>
<path d="M16 6V4H14V6H16Z" fill="#00A2FF"/>
<path d="M18 6V4H16V6H18Z" fill="#00A2FF"/>
<path d="M20 6V4H18V6H20Z" fill="#00A2FF"/>
<path d="M22 6V4H20V6H22Z" fill="#00A1FF"/>
<path d="M26 6V4H24V6H26Z" fill="#00A2FF"/>
<path d="M24 6V4H22V6H24Z" fill="#00A2FF"/>
<path d="M28 6V4H26V6H28Z" fill="#0089D8"/>
<path d="M14 0H16V2L14 2V0Z" fill="black"/>
<path d="M16 0H18V2H16V0Z" fill="black"/>
<path d="M8 2H10V4H8V2Z" fill="black"/>
<path d="M10 2H12V4H10V2Z" fill="black"/>
<path d="M12 2L14 2V4H12V2Z" fill="black"/>
<path d="M18 36H16V34H18V36Z" fill="black"/>
<path d="M16 36H14V34H16V36Z" fill="black"/>
<path d="M2 14L2 12H4V14H2Z" fill="black"/>
<path d="M2 12V10H4V12H2Z" fill="black"/>
<path d="M2 10V8H4V10H2Z" fill="black"/>
<path d="M4 6V4H6V6H4Z" fill="black"/>
<path d="M4 8V6H6V8H4Z" fill="black"/>
<path d="M6 6V4H8V6H6Z" fill="black"/>
<path d="M2 28L2 26H4V28H2Z" fill="black"/>
<path d="M2 26V24H4V26H2Z" fill="black"/>
<path d="M2 24V22H4V24H2Z" fill="black"/>
<path d="M14 34H12V32H14V34Z" fill="black"/>
<path d="M12 34H10V32H12V34Z" fill="black"/>
<path d="M10 34H8V32H10V34Z" fill="black"/>
<path d="M6 32H4L4 30H6V32Z" fill="black"/>
<path d="M8 32H6V30H8V32Z" fill="black"/>
<path d="M6 30H4L4 28H6V30Z" fill="black"/>
<path d="M8.74228e-08 22L0 20H2L2 22H8.74228e-08Z" fill="black"/>
<path d="M0 20V18H2V20H0Z" fill="black"/>
<path d="M0 18V16H2V18H0Z" fill="black"/>
<path d="M0 16V14H2V16H0Z" fill="black"/>
<path d="M22 0H20V2H22V0Z" fill="black"/>
<path d="M20 0H18V2H20V0Z" fill="black"/>
<path d="M28 2H26V4H28V2Z" fill="black"/>
<path d="M26 2H24V4H26V2Z" fill="black"/>
<path d="M24 2H22V4H24V2Z" fill="black"/>
<path d="M18 36H20V34H18V36Z" fill="black"/>
<path d="M20 36H22V34H20V36Z" fill="black"/>
<path d="M34 14V12H32V14H34Z" fill="black"/>
<path d="M34 12V10H32V12H34Z" fill="black"/>
<path d="M34 10V8H32V10H34Z" fill="black"/>
<path d="M32 6V4H30V6H32Z" fill="black"/>
<path d="M32 8V6H30V8H32Z" fill="black"/>
<path d="M30 6V4H28V6H30Z" fill="black"/>
<path d="M34 28V26H32V28H34Z" fill="black"/>
<path d="M34 26V24H32V26H34Z" fill="black"/>
<path d="M34 24V22H32V24H34Z" fill="black"/>
<path d="M22 34H24V32H22V34Z" fill="black"/>
<path d="M24 34H26V32H24V34Z" fill="black"/>
<path d="M26 34H28V32H26V34Z" fill="black"/>
<path d="M30 32H32V30H30V32Z" fill="black"/>
<path d="M28 32H30V30H28V32Z" fill="black"/>
<path d="M30 30H32V28H30V30Z" fill="black"/>
<path d="M36 22V20H34V22H36Z" fill="black"/>
<path d="M36 20V18H34V20H36Z" fill="black"/>
<path d="M36 18V16H34V18H36Z" fill="black"/>
<path d="M36 16V14H34V16H36Z" fill="black"/>
<path d="M4 16V14H2V16H4Z" fill="#009924"/>
<path d="M6 16V14H4V16H6Z" fill="#00D030"/>
<path d="M8 16V14H6V16H8Z" fill="#00D030"/>
<path d="M10 16V14H8V16H10Z" fill="#00D030"/>
<path d="M12 16V14H10V16H12Z" fill="#009924"/>
<path d="M14 16V14H12V16H14Z" fill="#00A1FF"/>
<path d="M16 16V14H14V16H16Z" fill="#00A2FF"/>
<path d="M18 16V14H16V16H18Z" fill="#00A2FF"/>
<path d="M20 16V14H18V16H20Z" fill="#00A2FF"/>
<path d="M22 16V14H20V16H22Z" fill="#009924"/>
<path d="M24 16V14H22V16H24Z" fill="#00D030"/>
<path d="M26 16V14H24V16H26Z" fill="#00D030"/>
<path d="M28 16V14H26V16H28Z" fill="#00D030"/>
<path d="M30 16V14H28V16H30Z" fill="#00D030"/>
<path d="M32 16V14H30V16H32Z" fill="#00D030"/>
<path d="M6 14V12H4V14H6Z" fill="#00D030"/>
<path d="M8 14V12H6V14H8Z" fill="#00D030"/>
<path d="M10 14V12H8V14H10Z" fill="#009924"/>
<path d="M12 14V12H10V14H12Z" fill="#00A1FF"/>
<path d="M14 14V12H12V14H14Z" fill="#00A2FF"/>
<path d="M16 14V12H14V14H16Z" fill="#00A2FF"/>
<path d="M18 14V12H16V14H18Z" fill="#00A2FF"/>
<path d="M20 14V12H18V14H20Z" fill="#00A2FF"/>
<path d="M22 14V12H20V14H22Z" fill="#00A2FF"/>
<path d="M24 14V12H22V14H24Z" fill="#009924"/>
<path d="M26 14V12H24V14H26Z" fill="#009924"/>
<path d="M28 14V12H26V14H28Z" fill="#00D030"/>
<path d="M30 14V12H28V14H30Z" fill="#00D030"/>
<path d="M32 14V12H30V14H32Z" fill="#00D030"/>
<path d="M6 12V10H4V12H6Z" fill="#00D030"/>
<path d="M8 12V10H6V12H8Z" fill="#00D030"/>
<path d="M10 12V10H8V12H10Z" fill="#00D030"/>
<path d="M12 12V10H10V12H12Z" fill="#00D030"/>
<path d="M14 12V10H12V12H14Z" fill="#009924"/>
<path d="M16 12V10H14V12H16Z" fill="#00A2FF"/>
<path d="M18 12V10H16V12H18Z" fill="#00A2FF"/>
<path d="M20 12V10H18V12H20Z" fill="#00A2FF"/>
<path d="M22 12V10H20V12H22Z" fill="#00A2FF"/>
<path d="M24 12V10H22V12H24Z" fill="#00A1FF"/>
<path d="M26 12V10H24V12H26Z" fill="#00A2FF"/>
<path d="M28 12V10H26V12H28Z" fill="#009924"/>
<path d="M30 12V10H28V12H30Z" fill="#00D030"/>
<path d="M32 12V10H30V12H32Z" fill="#00D030"/>
<path d="M6 10V8H4V10H6Z" fill="#00D030"/>
<path d="M8 10V8H6V10H8Z" fill="#00D030"/>
<path d="M10 10V8H8V10H10Z" fill="#00D030"/>
<path d="M12 10V8H10V10H12Z" fill="#00D030"/>
<path d="M14 10V8H12V10H14Z" fill="#009924"/>
<path d="M16 10V8H14V10H16Z" fill="#00A2FF"/>
<path d="M18 10V8H16V10H18Z" fill="#00A2FF"/>
<path d="M20 10V8H18V10H20Z" fill="#00A2FF"/>
<path d="M22 10V8H20V10H22Z" fill="#00A2FF"/>
<path d="M24 10V8H22V10H24Z" fill="#00A1FF"/>
<path d="M26 10V8H24V10H26Z" fill="#00A2FF"/>
<path d="M28 10V8H26V10H28Z" fill="#0089D8"/>
<path d="M30 10V8H28V10H30Z" fill="#009924"/>
<path d="M32 10V8H30V10H32Z" fill="#009924"/>
<path d="M6 24V22H4V24H6Z" fill="#00A2FF"/>
<path d="M8 24V22H6V24H8Z" fill="#00A2FF"/>
<path d="M10 24V22H8V24H10Z" fill="#00A2FF"/>
<path d="M12 24V22H10V24H12Z" fill="#00A2FF"/>
<path d="M14 24V22H12V24H14Z" fill="#00A2FF"/>
<path d="M16 24V22H14V24H16Z" fill="#009924"/>
<path d="M18 24V22H16V24H18Z" fill="#00D030"/>
<path d="M20 24V22H18V24H20Z" fill="#009924"/>
<path d="M22 24V22H20V24H22Z" fill="#00A2FF"/>
<path d="M24 24V22H22V24H24Z" fill="#0089D8"/>
<path d="M26 24V22H24V24H26Z" fill="#0089D8"/>
<path d="M28 24V22H26V24H28Z" fill="#0089D8"/>
<path d="M30 24V22H28V24H30Z" fill="#0089D8"/>
<path d="M32 24V22H30V24H32Z" fill="#00639D"/>
<path d="M6 26V24H4V26H6Z" fill="#00A2FF"/>
<path d="M8 26V24H6V26H8Z" fill="#00A2FF"/>
<path d="M10 26V24H8V26H10Z" fill="#00A2FF"/>
<path d="M12 26V24H10V26H12Z" fill="#00A2FF"/>
<path d="M14 26V24H12V26H14Z" fill="#00A2FF"/>
<path d="M16 26V24H14V26H16Z" fill="#00A2FF"/>
<path d="M18 26V24H16V26H18Z" fill="#009924"/>
<path d="M20 26V24H18V26H20Z" fill="#009924"/>
<path d="M22 26V24H20V26H22Z" fill="#009924"/>
<path d="M24 26V24H22V26H24Z" fill="#0089D8"/>
<path d="M26 26V24H24V26H26Z" fill="#0089D8"/>
<path d="M28 26V24H26V26H28Z" fill="#0089D8"/>
<path d="M30 26V24H28V26H30Z" fill="#0089D8"/>
<path d="M32 26V24H30V26H32Z" fill="#00639D"/>
<path d="M6 28V26H4V28H6Z" fill="#00A2FF"/>
<path d="M8 28V26H6V28H8Z" fill="#00A2FF"/>
<path d="M10 28V26H8V28H10Z" fill="#00A2FF"/>
<path d="M12 28V26H10V28H12Z" fill="#00A2FF"/>
<path d="M14 28V26H12V28H14Z" fill="#0089D8"/>
<path d="M16 28V26H14V28H16Z" fill="#0089D8"/>
<path d="M18 28V26H16V28H18Z" fill="#0089D8"/>
<path d="M20 28V26H18V28H20Z" fill="#0089D8"/>
<path d="M22 28V26H20V28H22Z" fill="#0089D8"/>
<path d="M24 28V26H22V28H24Z" fill="#0089D8"/>
<path d="M26 28V26H24V28H26Z" fill="#0089D8"/>
<path d="M28 28V26H26V28H28Z" fill="#0089D8"/>
<path d="M8 28V26H6V28H8Z" fill="#00A1FF"/>
<path d="M10 28V26H8V28H10Z" fill="#009924"/>
<path d="M12 28V26H10V28H12Z" fill="#009924"/>
<path d="M14 28V26H12V28H14Z" fill="#009924"/>
<path d="M16 28V26H14V28H16Z" fill="#0089D8"/>
<path d="M18 28V26H16V28H18Z" fill="#0089D8"/>
<path d="M20 28V26H18V28H20Z" fill="#0089D8"/>
<path d="M22 28V26H20V28H22Z" fill="#0089D8"/>
<path d="M24 28V26H22V28H24Z" fill="#0089D8"/>
<path d="M26 28V26H24V28H26Z" fill="#0089D8"/>
<path d="M28 28V26H26V28H28Z" fill="#0089D8"/>
<path d="M30 28V26H28V28H30Z" fill="#00639D"/>
<path d="M8 30V28H6V30H8Z" fill="#009924"/>
<path d="M10 30V28H8V30H10Z" fill="#00D030"/>
<path d="M12 30V28H10V30H12Z" fill="#00D030"/>
<path d="M14 30V28H12V30H14Z" fill="#00D030"/>
<path d="M16 30V28H14V30H16Z" fill="#009924"/>
<path d="M10 32V30H8V32H10Z" fill="#00D030"/>
<path d="M12 32V30H10V32H12Z" fill="#00D030"/>
<path d="M14 32V30H12V32H14Z" fill="#00D030"/>
<path d="M16 32V30H14V32H16Z" fill="#00D030"/>
<path d="M18 32V30H16V32H18Z" fill="#00D030"/>
<path d="M16 34L16 32H14V34H16Z" fill="#00D030"/>
<path d="M18 34L18 32H16L16 34H18Z" fill="#00D030"/>
<path d="M20 34L20 32H18L18 34H20Z" fill="#00D030"/>
<path d="M22 34V32H20L20 34H22Z" fill="#009924"/>
<path d="M20 32V30H18V32H20Z" fill="#009924"/>
<path d="M22 32V30H20V32H22Z" fill="#00639D"/>
<path d="M24 32V30H22V32H24Z" fill="#00639D"/>
<path d="M26 32V30H24V32H26Z" fill="#00639D"/>
<path d="M28 32V30H26V32H28Z" fill="#00639D"/>
<path d="M18 30V28H16V30H18Z" fill="#009924"/>
<path d="M20 30V28H18V30H20Z" fill="#0089D8"/>
<path d="M22 30V28H20V30H22Z" fill="#0089D8"/>
<path d="M24 30V28H22V30H24Z" fill="#0089D8"/>
<path d="M26 30V28H24V30H26Z" fill="#009924"/>
<path d="M28 30V28H26V30H28Z" fill="#00639D"/>
<path d="M30 30V28H28V30H30Z" fill="#00639D"/>
<path d="M32 28V26H30V28H32Z" fill="#00639D"/>
<path d="M34 16V14H32V16H34Z" fill="#00D030"/>
<path d="M4 22V20H2L2 22H4Z" fill="#00A2FF"/>
<path d="M6 22V20H4V22H6Z" fill="#00A2FF"/>
<path d="M8 22V20H6V22H8Z" fill="#00A2FF"/>
<path d="M10 22V20H8V22H10Z" fill="#00A2FF"/>
<path d="M12 22V20H10V22H12Z" fill="#00A2FF"/>
<path d="M14 22V20H12V22H14Z" fill="#00A2FF"/>
<path d="M16 22V20H14V22H16Z" fill="#009924"/>
<path d="M18 22V20H16V22H18Z" fill="#009924"/>
<path d="M20 22V20H18V22H20Z" fill="#00A2FF"/>
<path d="M22 22V20H20V22H22Z" fill="#00A2FF"/>
<path d="M24 22V20H22V22H24Z" fill="#0089D8"/>
<path d="M26 22V20H24V22H26Z" fill="#0089D8"/>
<path d="M28 22V20H26V22H28Z" fill="#0089D8"/>
<path d="M30 22V20H28V22H30Z" fill="#009924"/>
<path d="M32 22V20H30V22H32Z" fill="#009924"/>
<path d="M34 22V20H32V22H34Z" fill="#009924"/>
<path d="M6 20V18H4V20H6Z" fill="#00A2FF"/>
<path d="M8 20V18H6V20H8Z" fill="#009924"/>
<path d="M10 20V18H8V20H10Z" fill="#009924"/>
<path d="M12 20V18H10V20H12Z" fill="#00A2FF"/>
<path d="M14 20V18H12V20H14Z" fill="#00A2FF"/>
<path d="M16 20V18H14V20H16Z" fill="#00A2FF"/>
<path d="M18 20V18H16V20H18Z" fill="#00A2FF"/>
<path d="M20 20V18H18V20H20Z" fill="#00A2FF"/>
<path d="M22 20V18H20V20H22Z" fill="#00A2FF"/>
<path d="M24 20V18H22V20H24Z" fill="#00A2FF"/>
<path d="M26 20V18H24V20H26Z" fill="#009924"/>
<path d="M28 20V18H26V20H28Z" fill="#009924"/>
<path d="M30 20V18H28V20H30Z" fill="#00D030"/>
<path d="M32 20V18H30V20H32Z" fill="#00D030"/>
<path d="M4 20V18H2V20H4Z" fill="#00A2FF"/>
<path d="M22 20V18H20V20H22Z" fill="#00A1FF"/>
<path d="M34 20V18H32V20H34Z" fill="#00D030"/>
<path d="M4 18V16H2V18H4Z" fill="#00A2FF"/>
<path d="M6 18V16H4V18H6Z" fill="#009924"/>
<path d="M8 18V16H6V18H8Z" fill="#00D030"/>
<path d="M10 18V16H8V18H10Z" fill="#00D030"/>
<path d="M12 18V16H10V18H12Z" fill="#009924"/>
<path d="M14 18V16H12V18H14Z" fill="#00A1FF"/>
<path d="M8 8V6H6V8H8Z" fill="#009924"/>
<path d="M10 8V6H8V8H10Z" fill="#009924"/>
<path d="M12 8V6H10V8H12Z" fill="#009924"/>
<path d="M14 8V6H12V8H14Z" fill="#00A2FF"/>
<path d="M16 8V6H14V8H16Z" fill="#00A2FF"/>
<path d="M18 8V6H16V8H18Z" fill="#00A2FF"/>
<path d="M20 8V6H18V8H20Z" fill="#00A2FF"/>
<path d="M22 8V6H20V8H22Z" fill="#00A1FF"/>
<path d="M24 8V6H22V8H24Z" fill="#00A1FF"/>
<path d="M26 8V6H24V8H26Z" fill="#00A2FF"/>
<path d="M28 8V6H26V8H28Z" fill="#0089D8"/>
<path d="M30 8V6H28V8H30Z" fill="#0089D8"/>
<path d="M16 18V16H14V18H16Z" fill="#00A2FF"/>
<path d="M18 18V16H16V18H18Z" fill="#00A2FF"/>
<path d="M20 18V16H18V18H20Z" fill="#00A2FF"/>
<path d="M22 18V16H20V18H22Z" fill="#00A1FF"/>
<path d="M24 18V16H22V18H24Z" fill="#009924"/>
<path d="M26 18V16H24V18H26Z" fill="#00D030"/>
<path d="M28 18V16H26V18H28Z" fill="#00D030"/>
<path d="M30 18V16H28V18H30Z" fill="#00D030"/>
<path d="M32 18V16H30V18H32Z" fill="#00D030"/>
<path d="M34 18V16H32V18H34Z" fill="#00D030"/>
</svg>
